<?xml version="1.0" encoding="utf-8"?>
<!-- Generator: Adobe Illustrator 23.0.2, SVG Export Plug-In . SVG Version: 6.00 Build 0)  -->
<svg version="1.1" id="Capa_1" xmlns="http://www.w3.org/2000/svg" xmlns:xlink="http://www.w3.org/1999/xlink" x="0px" y="0px"
	 viewBox="0 0 133.7 36" style="enable-background:new 0 0 133.7 36;" xml:space="preserve">
<style type="text/css">
	.st0{fill:#034FC6;}
	.st1{fill:#FFFFFF;}
</style>
<g transform="translate(-96 -21.036)">
	<path class="st0" d="M110.7,52.5H96V21.7h13.6c2.4-0.1,4.8,0.6,6.8,2c2.1,1.6,3.2,4.2,3,6.8c0.1,2.3-1.2,4.5-3.2,5.7
		c1,0.3,1.9,0.8,2.6,1.6c0.7,0.6,1.2,1.4,1.6,2.2c0.5,1.1,0.7,2.3,0.7,3.5c0,1.3-0.3,2.5-0.8,3.7c-0.5,1.1-1.3,2.1-2.2,2.9
		C116,51.7,113.4,52.6,110.7,52.5z M101.3,39.3v8.2h9.2c1.3,0.1,2.6-0.3,3.7-1c1-0.7,1.5-1.9,1.5-3.1c0.1-1.2-0.5-2.4-1.5-3.1
		c-1.1-0.7-2.4-1-3.7-1L101.3,39.3z M101.3,26.7v7.6h8.1c3.1,0,4.6-1.2,4.6-3.8c0.1-1.1-0.4-2.2-1.3-2.9c-1-0.6-2.1-0.9-3.3-0.9
		H101.3z"/>
	<path class="st0" d="M123.6,52.5h5.1V21.7h-5.1V52.5z"/>
	<path class="st0" d="M133.9,51.9h5.1V31.3h-5.1V51.9z"/>
	<path class="st0" d="M162.2,39.1v13.4H157V40.4c0-3-1.8-4.2-4.1-4.2c-2.7,0-4.1,2.7-4.1,2.7v13.7h-5.2V31.8h4.9v3
		c1.3-2.2,3.6-3.5,6.2-3.5c4.1-0.1,7.5,3.1,7.6,7.2C162.2,38.7,162.2,38.9,162.2,39.1"/>
	<path class="st0" d="M171.3,39.9l7.4-8.2h6.7l-9,9.9l9.6,11h-6.9l-7.9-9.1v9.1H166V21.7h5.2L171.3,39.9L171.3,39.9z"/>
	<path class="st0" d="M193.5,52.5c-1.9,0-3.8-0.6-5.2-1.8c-1.5-1.3-2.3-3.2-2.3-5.1c0-1.9,0.9-3.7,2.4-4.9c1.7-1.3,3.7-2,5.8-1.9
		c1.5,0,3,0.2,4.3,0.7c0.5,0.2,1,0.4,1.5,0.7v-0.6c0-2.8-2.8-3.6-4.5-3.6h-6.6v-4.7h6.9c2.5-0.1,5,0.6,7,2.1
		c1.7,1.4,2.6,3.5,2.5,5.6v13h-4.9v-2.6l0,0c-0.5,0.6-1,1.1-1.7,1.6C197.2,52,195.4,52.6,193.5,52.5z M195.2,42.6
		c-0.9,0-1.8,0.2-2.5,0.6c-0.8,0.5-1.4,1.3-1.3,2.3c0,0.9,0.5,1.8,1.3,2.1c0.8,0.4,1.6,0.5,2.5,0.5c1.9,0,3.7-0.9,4.8-2.4v-2.1
		C198.5,42.9,196.9,42.6,195.2,42.6L195.2,42.6z"/>
	<path class="st0" d="M223.8,31.3l-6,11.6l-6-11.6h-5.9l9,17.2l-4.4,8.5h5.7l13.4-25.7H223.8z"/>
	<path class="st1" d="M158.2,28.1h-21.5c-1.9,0-3.4-1.6-3.4-3.5s1.5-3.5,3.4-3.5h21.5c1.9,0,3.4,1.6,3.4,3.5
		C161.6,26.5,160.1,28.1,158.2,28.1"/>
	<path class="st0" d="M158,21c1.9,0,3.5,1.6,3.5,3.5l0,0c0,1.9-1.6,3.5-3.5,3.5l0,0c-1.9,0-3.5-1.6-3.5-3.5l0,0
		C154.5,22.6,156.1,21,158,21L158,21"/>
</g>
</svg>
