<?xml version="1.0" encoding="utf-8"?>
<!-- Generator: Adobe Illustrator 23.0.1, SVG Export Plug-In . SVG Version: 6.00 Build 0)  -->
<svg version="1.1" id="Capa_1" xmlns="http://www.w3.org/2000/svg" xmlns:xlink="http://www.w3.org/1999/xlink" x="0px" y="0px"
	 viewBox="0 0 128 128" style="enable-background:new 0 0 128 128;" xml:space="preserve">
<style type="text/css">
	.st0{display:none;fill:#034FC6;}
	.st1{fill:#FFFFFF;}
	.st2{fill:#04D293;}
</style>
<rect x="0" class="st0" width="128" height="128"/>
<g>
	<path id="B" class="st1" d="M67.9,77.1H41.6V22h24.3c4.3-0.2,8.6,1.1,12.2,3.5c3.7,2.9,5.7,7.5,5.4,12.2c0.1,4.2-2.1,8.1-5.8,10.1
		c1.7,0.6,3.3,1.5,4.6,2.8c1.2,1.1,2.1,2.5,2.8,3.9c0.8,1.9,1.3,4.1,1.2,6.2c0,2.3-0.5,4.6-1.4,6.6c-0.9,2-2.3,3.7-3.9,5.1
		C77.3,75.6,72.7,77.2,67.9,77.1z M51.1,53.5v14.6h16.5c2.3,0.1,4.6-0.5,6.5-1.7c1.8-1.3,2.8-3.4,2.6-5.6c0.1-2.2-0.9-4.3-2.6-5.6
		c-2-1.2-4.2-1.8-6.5-1.7L51.1,53.5z M51.1,31v13.5h14.5c5.6,0,8.3-2.2,8.3-6.8c0.1-2-0.8-4-2.4-5.2c-1.8-1.1-3.8-1.7-5.9-1.6
		L51.1,31z"/>
	<g id="slider">
		<path id="bar" class="st1" d="M78.3,106H49.7c-4.5-0.1-8.2-3.9-8.1-8.4c-0.1-4.5,3.5-8.3,8.1-8.4h28.6c4.5,0.1,8.2,3.9,8.1,8.4
			C86.5,102.1,82.9,105.9,78.3,106"/>
		<path id="dot" class="st2" d="M78,89.2c4.6,0,8.4,3.7,8.4,8.3c0,0,0,0.1,0,0.1c0,4.6-3.7,8.4-8.3,8.4c0,0-0.1,0-0.1,0
			c-4.6,0-8.4-3.7-8.4-8.3c0,0,0-0.1,0-0.1c0-4.6,3.7-8.4,8.3-8.4C77.9,89.2,77.9,89.2,78,89.2"/>
	</g>
</g>
</svg>
