<?xml version="1.0" encoding="utf-8"?>
<!-- Generator: Adobe Illustrator 16.0.3, SVG Export Plug-In . SVG Version: 6.00 Build 0)  -->
<!DOCTYPE svg PUBLIC "-//W3C//DTD SVG 1.1//EN" "http://www.w3.org/Graphics/SVG/1.1/DTD/svg11.dtd">
<svg version="1.1" id="Layer_1" xmlns:sketch="http://www.bohemiancoding.com/sketch/ns"
	 xmlns="http://www.w3.org/2000/svg" xmlns:xlink="http://www.w3.org/1999/xlink" x="0px" y="0px" width="224px" height="48px"
	 viewBox="0 0 224 48" enable-background="new 0 0 224 48" xml:space="preserve">
<title>Logo_Integra</title>
<desc>Created with Sketch.</desc>
<g id="Page-1_1_" sketch:type="MSPage">
	<g id="Logo_Integra_1_" transform="translate(1.000000, 1.000000)" sketch:type="MSLayerGroup">
		<g id="Page-1" sketch:type="MSShapeGroup">
			<g id="Logo_Integra">
				<g id="Group">
					<path id="Shape" fill="#007bc5" d="M154.533,38.73l0.921,2.627c-2.905,1.494-6.352,2.247-10.331,2.263
						c-5.009,0.018-9.235-1.655-12.685-5.024c-3.449-3.367-5.182-7.689-5.2-12.965c-0.022-6.073,1.954-11.219,5.931-15.431
						c3.974-4.213,9.053-6.329,15.242-6.354c5.043-0.018,9.179,1.545,12.401,4.685c3.216,3.14,4.836,7.156,4.854,12.051
						c0.015,3.997-0.988,7.209-3.01,9.633c-2.02,2.426-4.444,3.646-7.282,3.655c-1.276,0.006-2.329-0.401-3.162-1.218
						c-0.83-0.814-1.307-2.08-1.429-3.793c-2.045,3.36-4.799,5.045-8.265,5.055c-1.791,0.008-3.298-0.663-4.521-2.011
						c-1.224-1.347-1.837-3.106-1.846-5.277c-0.013-3.658,1.287-6.812,3.908-9.468c2.615-2.655,5.85-3.993,9.695-4.006
						c2.399-0.007,4.534,0.402,6.401,1.233c-1.269,7.015-1.95,10.807-2.045,11.376c-0.092,0.572-0.139,1.219-0.136,1.943
						c0.008,2.169,0.763,3.253,2.269,3.246c1.56-0.006,2.964-0.947,4.202-2.828c1.241-1.879,1.858-4.296,1.846-7.245
						c-0.015-4.324-1.313-7.789-3.893-10.398c-2.579-2.609-6.059-3.905-10.438-3.89c-4.915,0.018-9.029,1.764-12.351,5.243
						c-3.321,3.476-4.969,7.958-4.947,13.442c0.016,4.704,1.442,8.473,4.28,11.31c2.837,2.837,6.437,4.248,10.797,4.231
						C149.131,40.808,152.063,40.109,154.533,38.73L154.533,38.73L154.533,38.73z M150.993,22.919l1.12-6.116
						c-0.839-0.301-1.811-0.449-2.915-0.443c-2.514,0.007-4.662,0.991-6.447,2.947c-1.781,1.96-2.667,4.301-2.656,7.023
						c0.004,1.332,0.351,2.397,1.039,3.197c0.688,0.796,1.642,1.193,2.858,1.188c1.561-0.004,3.03-0.825,4.407-2.458
						C149.771,26.624,150.636,24.845,150.993,22.919L150.993,22.919L150.993,22.919z"/>
					<g id="Shape_1_" transform="translate(0.000000, 24.000000)">
						<path fill="#b4d43d" d="M-0.052,19.659l0.007-7.03c0.542-0.096,1.165-0.146,1.868-0.146c0.897,0,1.569,0.195,2.019,0.579
							c0.449,0.388,0.672,0.894,0.672,1.524c0,0.744-0.26,1.314-0.778,1.713c-0.517,0.398-1.195,0.599-2.033,0.599
							c-0.355-0.003-0.613-0.028-0.77-0.077l-0.001,2.839H-0.052L-0.052,19.659z M0.937,13.326l-0.003,2.705
							c0.184,0.054,0.447,0.084,0.792,0.084c0.57,0,1.014-0.129,1.33-0.393c0.317-0.262,0.476-0.626,0.477-1.094
							c0-0.44-0.148-0.776-0.445-1.018c-0.297-0.234-0.714-0.355-1.252-0.355C1.491,13.254,1.193,13.276,0.937,13.326L0.937,13.326
							L0.937,13.326z"/>
						<path fill="#b4d43d" d="M9.219,16.576l-0.001,1.868c0,0.507,0.027,0.914,0.083,1.224H8.402l-0.115-0.656
							c-0.384,0.516-0.922,0.771-1.616,0.771c-0.485,0-0.875-0.147-1.167-0.433c-0.292-0.286-0.437-0.635-0.437-1.037
							c0-0.619,0.27-1.092,0.81-1.418c0.538-0.328,1.324-0.49,2.358-0.49v-0.094c0-0.363-0.098-0.645-0.298-0.847
							c-0.198-0.202-0.493-0.306-0.883-0.306c-0.521,0-0.985,0.129-1.395,0.39l-0.221-0.643c0.493-0.31,1.082-0.463,1.765-0.463
							c0.665,0.001,1.166,0.185,1.505,0.552C9.05,15.357,9.221,15.888,9.219,16.576L9.219,16.576L9.219,16.576z M8.257,17.926
							v-0.845c-0.823,0-1.395,0.097-1.714,0.295c-0.32,0.197-0.481,0.467-0.481,0.811c0,0.273,0.079,0.484,0.239,0.638
							c0.16,0.153,0.372,0.23,0.635,0.23c0.373,0,0.687-0.113,0.94-0.344C8.129,18.479,8.257,18.218,8.257,17.926L8.257,17.926
							L8.257,17.926z"/>
						<path fill="#b4d43d" d="M10.747,19.672l0.004-3.483c0-0.662-0.013-1.203-0.041-1.626l0.865,0.002l0.062,1.022
							c0.13-0.358,0.33-0.641,0.599-0.838c0.267-0.199,0.557-0.301,0.87-0.298c0.066,0,0.155,0.006,0.266,0.02l-0.001,0.93
							c-0.095-0.021-0.208-0.03-0.337-0.03c-0.355-0.003-0.66,0.138-0.917,0.414c-0.256,0.276-0.385,0.674-0.385,1.188l-0.001,2.703
							h-0.982V19.672L10.747,19.672z"/>
						<path fill="#b4d43d" d="M15.326,12.16l0.016,4.73c0.129-0.184,0.291-0.381,0.481-0.595l1.517-1.725h1.192l-2.039,2.089
							l2.329,3.021l-1.215-0.002l-1.792-2.438l-0.498,0.536v1.9l-0.981-0.002l0.008-7.516H15.326L15.326,12.16z"/>
						<path fill="#b4d43d" d="M20.804,13.02c0,0.178-0.059,0.325-0.176,0.444c-0.116,0.12-0.27,0.179-0.459,0.179
							c-0.184,0-0.333-0.06-0.447-0.179c-0.117-0.12-0.175-0.268-0.175-0.444c0-0.172,0.061-0.317,0.178-0.436
							c0.118-0.117,0.27-0.176,0.456-0.176c0.181,0,0.328,0.059,0.446,0.176C20.744,12.703,20.804,12.848,20.804,13.02L20.804,13.02
							L20.804,13.02z M20.659,19.682h-0.981l0.004-5.107h0.983L20.659,19.682L20.659,19.682z"/>
						<path fill="#b4d43d" d="M22.231,19.684l0.004-3.703c0.001-0.568-0.014-1.034-0.041-1.403h0.865l0.083,0.865
							c0.162-0.295,0.399-0.533,0.713-0.711c0.313-0.181,0.655-0.27,1.03-0.27c0.534,0,0.98,0.189,1.334,0.57
							c0.355,0.378,0.533,0.932,0.531,1.659l-0.003,2.999l-0.982-0.003l0.004-2.892c0-0.481-0.104-0.855-0.31-1.122
							c-0.208-0.268-0.509-0.397-0.902-0.397c-0.353,0-0.663,0.129-0.935,0.395c-0.271,0.264-0.408,0.585-0.408,0.966l-0.003,3.05
							L22.231,19.684L22.231,19.684z"/>
						<path fill="#b4d43d" d="M37.157,19.338l0.253-0.811c0.531,0.316,1.105,0.476,1.721,0.476c0.463,0,0.833-0.105,1.103-0.32
							c0.27-0.217,0.406-0.502,0.408-0.86c0-0.33-0.107-0.602-0.321-0.812c-0.214-0.209-0.568-0.396-1.061-0.562
							c-0.674-0.235-1.168-0.518-1.483-0.843c-0.313-0.327-0.468-0.723-0.468-1.188c0-0.565,0.223-1.031,0.667-1.4
							c0.442-0.367,1.016-0.551,1.72-0.549c0.675,0.001,1.225,0.121,1.646,0.36L41.08,13.62c-0.408-0.232-0.882-0.348-1.416-0.348
							c-0.428-0.002-0.764,0.099-1.003,0.301c-0.241,0.201-0.36,0.451-0.36,0.741c0,0.296,0.103,0.54,0.307,0.733
							c0.202,0.193,0.585,0.395,1.148,0.599c0.674,0.247,1.157,0.535,1.446,0.863c0.288,0.33,0.431,0.744,0.431,1.241
							c0,0.606-0.228,1.104-0.682,1.49c-0.455,0.384-1.087,0.575-1.896,0.575c-0.337,0-0.683-0.046-1.038-0.135
							C37.662,19.596,37.375,19.481,37.157,19.338L37.157,19.338L37.157,19.338z"/>
						<path fill="#b4d43d" d="M47.725,17.103c0,0.55-0.116,1.029-0.344,1.439c-0.229,0.412-0.55,0.728-0.961,0.949
							c-0.412,0.22-0.858,0.333-1.337,0.331c-0.746,0-1.362-0.246-1.847-0.731c-0.485-0.489-0.728-1.122-0.728-1.898
							c0.001-0.828,0.253-1.486,0.754-1.977c0.501-0.49,1.135-0.735,1.899-0.735c0.76,0.002,1.377,0.245,1.852,0.734
							C47.486,15.703,47.727,16.332,47.725,17.103L47.725,17.103L47.725,17.103z M43.514,17.162c0,0.561,0.149,1.021,0.447,1.386
							c0.299,0.363,0.673,0.544,1.124,0.547c0.46,0,0.844-0.184,1.152-0.547c0.308-0.367,0.464-0.835,0.464-1.415
							c0-0.53-0.141-0.984-0.424-1.358c-0.284-0.377-0.669-0.564-1.159-0.565c-0.497,0-0.888,0.186-1.175,0.557
							S43.514,16.603,43.514,17.162L43.514,17.162L43.514,17.162z"/>
						<path fill="#b4d43d" d="M48.916,19.711l0.009-7.518l0.98,0.003l-0.006,7.515H48.916L48.916,19.711z"/>
						<path fill="#b4d43d" d="M55.92,14.61l-0.004,3.696c0,0.58,0.013,1.052,0.041,1.412h-0.865l-0.083-0.864
							c-0.395,0.651-0.979,0.979-1.753,0.979c-0.559,0-1.003-0.193-1.327-0.579c-0.326-0.384-0.488-0.948-0.485-1.694l0.001-2.955
							l0.981,0.002l-0.003,2.785c0,1.083,0.39,1.625,1.17,1.626c0.359,0,0.672-0.127,0.94-0.385
							c0.267-0.255,0.402-0.567,0.402-0.935l0.003-3.091h0.982V14.61L55.92,14.61z"/>
						<path fill="#b4d43d" d="M57.706,13.66l0.96-0.282l-0.001,1.234l1.363,0.002v0.751l-1.363-0.003l-0.003,2.659
							c0,0.357,0.057,0.613,0.172,0.77c0.112,0.154,0.294,0.233,0.545,0.233c0.228,0,0.416-0.021,0.56-0.062L59.98,19.7
							c-0.243,0.092-0.535,0.14-0.877,0.137c-0.935,0-1.403-0.583-1.402-1.752l0.003-2.725h-0.803v-0.749l0.803,0.001L57.706,13.66
							L57.706,13.66z"/>
						<path fill="#b4d43d" d="M62.233,13.064c0,0.175-0.059,0.325-0.175,0.444c-0.116,0.118-0.27,0.179-0.459,0.179
							c-0.184,0-0.332-0.061-0.448-0.181c-0.117-0.119-0.174-0.268-0.174-0.445c0-0.171,0.06-0.315,0.177-0.433
							c0.117-0.117,0.27-0.178,0.456-0.178c0.181,0,0.329,0.061,0.446,0.178C62.176,12.746,62.235,12.893,62.233,13.064
							L62.233,13.064L62.233,13.064z M62.089,19.725h-0.981l0.004-5.109h0.983L62.089,19.725L62.089,19.725z"/>
						<path fill="#b4d43d" d="M68.489,17.124c0,0.55-0.116,1.029-0.345,1.44c-0.229,0.41-0.548,0.728-0.96,0.947
							c-0.413,0.222-0.858,0.334-1.336,0.334c-0.745-0.003-1.361-0.247-1.846-0.733c-0.486-0.49-0.728-1.123-0.728-1.899
							c0.001-0.825,0.253-1.485,0.753-1.976c0.503-0.491,1.136-0.736,1.9-0.735c0.76,0,1.377,0.245,1.852,0.732
							C68.253,15.725,68.491,16.354,68.489,17.124L68.489,17.124L68.489,17.124z M64.278,17.183c0,0.56,0.15,1.021,0.447,1.385
							c0.298,0.364,0.672,0.548,1.124,0.548c0.46,0,0.847-0.181,1.155-0.548c0.308-0.363,0.462-0.836,0.462-1.415
							c0-0.53-0.141-0.982-0.424-1.357c-0.283-0.377-0.669-0.563-1.159-0.564c-0.496-0.002-0.887,0.185-1.174,0.556
							C64.421,16.158,64.278,16.624,64.278,17.183L64.278,17.183L64.278,17.183z"/>
						<path fill="#b4d43d" d="M69.678,19.735l0.005-3.707c0-0.566-0.014-1.034-0.042-1.404h0.866l0.083,0.867
							c0.162-0.296,0.399-0.53,0.713-0.711c0.313-0.178,0.655-0.27,1.029-0.27c0.534,0,0.98,0.192,1.335,0.57
							c0.355,0.38,0.531,0.933,0.531,1.662l-0.003,2.996h-0.981l0.003-2.894c0-0.481-0.101-0.856-0.31-1.123
							c-0.208-0.265-0.509-0.398-0.903-0.398c-0.352,0-0.663,0.132-0.935,0.396s-0.407,0.588-0.407,0.966l-0.003,3.051
							L69.678,19.735L69.678,19.735L69.678,19.735z"/>
						<path fill="#b4d43d" d="M75.38,19.497l0.233-0.749c0.415,0.254,0.843,0.38,1.286,0.38c0.316,0.001,0.562-0.066,0.733-0.199
							c0.173-0.135,0.26-0.313,0.26-0.537c0-0.214-0.072-0.392-0.215-0.526c-0.142-0.136-0.392-0.262-0.746-0.384
							c-0.936-0.32-1.403-0.803-1.402-1.448c0-0.43,0.165-0.789,0.498-1.078c0.333-0.292,0.777-0.438,1.328-0.438
							c0.516,0.003,0.951,0.106,1.312,0.318l-0.245,0.706c-0.354-0.203-0.722-0.307-1.099-0.307c-0.26,0-0.467,0.063-0.616,0.193
							c-0.152,0.129-0.227,0.291-0.227,0.493c0,0.18,0.063,0.33,0.191,0.455c0.129,0.123,0.396,0.257,0.8,0.401
							c0.492,0.178,0.846,0.385,1.062,0.627c0.214,0.241,0.319,0.542,0.319,0.905c0,0.463-0.177,0.837-0.531,1.123
							c-0.353,0.284-0.836,0.427-1.444,0.427C76.319,19.858,75.818,19.738,75.38,19.497L75.38,19.497L75.38,19.497z"/>
					</g>
					<g id="Shape_2_">
						<path fill="#007bc5" d="M0.401-0.455l4.687-0.017l0.122,33.964l-4.686,0.019L0.401-0.455L0.401-0.455z"/>
						<path fill="#007bc5" d="M40.765,4.434l4.583-1.376l0.021,5.895l6.501-0.023l0.012,3.578L45.38,12.53l0.044,12.698
							c0.004,1.699,0.282,2.919,0.833,3.664c0.549,0.745,1.418,1.117,2.611,1.111c1.094-0.004,1.981-0.107,2.671-0.311l0.213,3.525
							c-1.156,0.44-2.551,0.666-4.181,0.669c-4.466,0.019-6.712-2.765-6.729-8.34L40.765,4.434L40.765,4.434z"/>
						<path fill="#007bc5" d="M112.168,18.181c-0.011-3.157,2.092-6.079,4.365-7.758c1.971-1.459,5.344-2.297,6.838-2.303
							c0.318,0,0.739,0.031,1.259,0.095l0.016,4.436c-0.455-0.098-2.231-0.142-1.612-0.145c0.381-0.001-2.464-0.083-4.366,2.005
							c-1.212,1.332-1.813,3.224-1.804,5.677l0.045,12.897l-4.686,0.021L112.168,18.181L112.168,18.181z"/>
					</g>
					<path id="Shape_3_" fill="#007bc5" d="M13.095,17.19h4.352c0,0,0.819-5.031,6.651-4.815c4.532,0.167,5.341,5.041,5.341,7.223
						v13.806h4.734V19.555c0,0,0.562-11.3-10.527-11.3C15.023,8.257,13.095,17.19,13.095,17.19L13.095,17.19L13.095,17.19z"/>
					<path id="Shape_4_" fill="#007bc5" d="M66.497,18.654h6.266c0,0,0.206-7.328-6.776-6.988c-5.972,0.291-6.479,7.391-6.5,8.625
						c-0.021,1.234-0.485,8.834,6.828,9.672c5.639,0.645,8.802-1.061,8.802-1.061l0.818,3.271c0,0-3.209,1.642-8.805,1.642
						c-5.485,0-8.82-1.795-11.124-6.389c-1.225-2.443-2.622-10.11,2.388-15.585c3.704-4.048,10.014-4.238,13.573-2.365
						c2.032,1.07,5.979,4.581,5.191,12.516H66.441L66.497,18.654L66.497,18.654z"/>
					<path id="Shape_5_" fill="#007bc5" d="M85.882,38.164c0,0,4.309,2.891,9.23,1.861c4.924-1.03,5.692-3.919,6.208-6.545
						s0-15.297,0-15.297s0.136-6.58-7.302-6.222c-6.39,0.305-7.176,7.836-7.056,9.19c0.174,1.933,0.666,7.943,7.632,8.417
						l0.131,3.612c0,0-4.21,0.011-6.493-1.274c-2.286-1.285-5.714-4.771-5.719-11.461c-0.007-7.272,5.235-12.296,11.379-12.526
						c6.143-0.229,11.742,3.716,12.133,10.958c0.018,3.254,0,12.332,0,12.332s-0.214,5.601-2.185,8.084
						c-1.967,2.482-5.012,4.4-9.572,4.403c-6.796,0.006-9.533-1.945-9.533-1.945L85.882,38.164L85.882,38.164z"/>
					<path id="Shape_6_" fill="#b4d43d" d="M27.907,44.834c0,0,0.907,0.608,1.942,0.391c1.037-0.216,1.198-0.823,1.309-1.376
						c0.108-0.551,0-3.219,0-3.219s0.028-1.386-1.537-1.308c-1.345,0.063-1.511,1.646-1.486,1.931
						c0.037,0.408,0.141,1.673,1.606,1.771l0.028,0.761c0,0-0.886,0.003-1.366-0.268c-0.481-0.272-1.202-1.006-1.204-2.414
						c-0.001-1.532,1.102-2.59,2.396-2.636c1.292-0.049,2.472,0.782,2.553,2.307c0.003,0.685,0,2.596,0,2.596
						s-0.045,1.179-0.459,1.698c-0.415,0.523-1.054,0.929-2.016,0.93c-1.43,0.002-2.006-0.411-2.006-0.411L27.907,44.834
						L27.907,44.834z"/>
				</g>
			</g>
		</g>
	</g>
</g>
</svg>
