<?xml version="1.0" encoding="utf-8"?>
<!-- Generator: Adobe Illustrator 24.0.1, SVG Export Plug-In . SVG Version: 6.00 Build 0)  -->
<svg version="1.1" id="Capa_1" xmlns="http://www.w3.org/2000/svg" xmlns:xlink="http://www.w3.org/1999/xlink" x="0px" y="0px"
	 viewBox="0 0 320 320" style="enable-background:new 0 0 320 320;" xml:space="preserve">
<style type="text/css">
	.st0{fill-rule:evenodd;clip-rule:evenodd;fill:#5469D4;}
</style>
<path class="st0" d="M307.1,162c0,2-0.2,6.2-0.2,7.3h-40c0.9,9.6,7.9,12.4,15.9,12.4c8.1,0,14.5-1.7,20-4.5v16.3
	c-5.6,3.1-12.9,5.3-22.6,5.3c-19.9,0-33.8-12.4-33.8-37c0-20.8,11.8-37.3,31.2-37.3C297,124.6,307.1,141.1,307.1,162z M266.8,154.3
	h21.1c0-9.2-5.3-13.1-10.3-13.1C272.4,141.2,266.8,145,266.8,154.3L266.8,154.3z M214.8,124.6c14.3,0,27.8,12.9,27.9,36.6
	c0,25.9-13.3,37.7-28,37.7c-7.2,0-11.5-3-14.5-5.1l-0.1,23.1l-20.4,4.3v-95.3h18l1.1,5.1C201.7,128.4,206.8,124.6,214.8,124.6
	L214.8,124.6z M209.9,180.9c7.5,0,12.6-8.2,12.6-19.1c0-10.7-5.1-19-12.6-19c-4.7,0-7.6,1.6-9.7,4l0.1,30.3
	C202.3,179.2,205.1,180.9,209.9,180.9L209.9,180.9z M151.7,119.8v-16.7l20.5-4.3v16.6L151.7,119.8L151.7,119.8z M151.7,126h20.5
	v71.5h-20.5C151.7,197.5,151.7,126,151.7,126z M129.7,132c4.8-8.8,14.4-7,17-6v18.8c-2.5-0.9-10.7-2-15.5,4.3v48.5h-20.4V126h17.7
	L129.7,132L129.7,132z M88.8,108.3L88.7,126h15.5v17.4H88.7v29c0,12.1,12.9,8.3,15.5,7.3v16.6c-2.7,1.5-7.6,2.7-14.3,2.7
	c-12.1,0-21.2-8.9-21.2-21l0.1-65.5C68.9,112.5,88.8,108.3,88.8,108.3z M33.6,146.8c0,9.2,31.1,4.8,31.2,29.2
	c0,14.6-11.7,23.1-28.7,23.1c-7,0-14.7-1.4-22.3-4.7v-19.5c6.9,3.8,15.5,6.5,22.3,6.5c4.6,0,7.8-1.2,7.8-5c0-9.7-31.1-6.1-31.1-28.7
	c0-14.5,11-23.1,27.6-23.1c6.8,0,13.5,1.1,20.3,3.8v19.2c-6.2-3.4-14.1-5.2-20.3-5.2C36.2,142.3,33.6,143.6,33.6,146.8z"/>
</svg>
