<?xml version="1.0" encoding="utf-8"?>
<!-- Generator: Adobe Illustrator 16.0.0, SVG Export Plug-In . SVG Version: 6.00 Build 0)  -->
<!DOCTYPE svg PUBLIC "-//W3C//DTD SVG 1.1//EN" "http://www.w3.org/Graphics/SVG/1.1/DTD/svg11.dtd">
<svg version="1.1" xmlns="http://www.w3.org/2000/svg" xmlns:xlink="http://www.w3.org/1999/xlink" x="0px" y="0px" width="128px"
	 height="128px" viewBox="0 0 128 128" enable-background="new 0 0 128 128" xml:space="preserve">
<g id="Capa_2_1_" display="none">
	<rect display="inline" width="128" height="128"/>
</g>
<g id="Capa_1" display="none">
	<g id="Capa_1_1_">
		<g display="inline">
			<rect fill="#47B39C" width="128" height="128"/>
			<polygon opacity="0.2" fill="#47B39C" enable-background="new    " points="128,128 0.051,128 128,-0.187 128,-0.107 			"/>
			<g>
				<polyline opacity="0.2" enable-background="new    " points="106.637,60.426 128,87.131 128,97.221 51.024,97.395 
					21.178,67.695 				"/>
				<g>
					<rect x="21" y="60" fill="#FFFFFF" width="86" height="8"/>
					<g>
						<polygon fill="#FFFFFF" points="54.503,37.181 21.967,69.419 16.932,64.383 49.467,32.145 						"/>
						<polygon fill="#FFFFFF" points="48.28,96.718 21.68,69.523 26.715,64.488 53.316,91.682 						"/>
					</g>
				</g>
			</g>
			<g display="none">
				<polyline display="inline" opacity="0.2" enable-background="new    " points="106.637,91.285 128,117.991 128,128.08 
					51.024,128.254 21.178,98.557 				"/>
				<polyline display="inline" opacity="0.2" enable-background="new    " points="106.637,60.426 128,87.131 128,97.221 
					51.024,97.395 21.178,67.695 				"/>
				<polyline display="inline" opacity="0.2" enable-background="new    " points="106.637,30.752 128,57.458 128,67.547 
					51.024,67.721 21.178,38.022 				"/>
				<rect x="21" y="31" display="inline" fill="#FFFFFF" width="86" height="7"/>
				<rect x="21" y="60" display="inline" fill="#FFFFFF" width="86" height="8"/>
				<rect x="21" y="91" display="inline" fill="#FFFFFF" width="86" height="7"/>
			</g>
		</g>
	</g>
	<g id="Capa_2">
		<path display="inline" fill="#F2F2F2" d="M115,24H13C0.869,24-9,33.869-9,46v35c0,12.131,9.869,22,22,22h102
			c12.131,0,22-9.869,22-22V46C137,33.869,127.131,24,115,24z M127,81c0,6.627-5.373,12-12,12H25V35H8.211
			c1.468-0.64,3.085-1,4.789-1h102c6.627,0,12,5.373,12,12V81z"/>
		<line display="inline" fill="none" stroke="#000000" stroke-width="8" stroke-miterlimit="10" x1="78" y1="65" x2="120" y2="65"/>
	</g>
	<g id="Capa_3">
		<g display="inline">
			<path fill="none" stroke="#FFFFFF" stroke-width="8" stroke-miterlimit="10" d="M109,75c0,9.941-8.059,18-18,18H36
				c-9.941,0-18-8.059-18-18V54c0-9.941,8.059-18,18-18h55c9.941,0,18,8.059,18,18V75z"/>
			<path fill="none" stroke="#FFFFFF" stroke-width="8" stroke-miterlimit="10" d="M109,75c0,9.941-8.059,18-18,18H36
				c-9.941,0-18-8.059-18-18V54c0-9.941,8.059-18,18-18h55c9.941,0,18,8.059,18,18V75z"/>
			<path fill="#FFFFFF" stroke="#FFFFFF" stroke-width="8" stroke-miterlimit="10" d="M36.5,81c-3.309,0-6.5-3.191-6.5-6.5v-21
				c0-3.309,3.191-5.5,6.5-5.5H42v5.5v21V81H36.5z"/>
		</g>
	</g>
	<path display="inline" fill="#FFFFFF" d="M92.347,109.354H35.654c-9.394,0-17.008-7.614-17.008-17.008V35.654
		c0-9.394,7.614-17.008,17.008-17.008h56.693c9.387,0,17.008,7.614,17.008,17.008v56.693
		C109.354,101.74,101.733,109.354,92.347,109.354z M98.017,35.654c0-3.131-2.533-5.669-5.67-5.669H35.654
		c-3.129,0-5.669,2.539-5.669,5.669v56.693c0,3.137,2.541,5.67,5.669,5.67h56.693c3.137,0,5.67-2.533,5.67-5.67V35.654z
		 M69.669,75.339c0-3.137,2.535-5.67,5.67-5.67h17.008L69.669,92.347V75.339z M75.339,58.331c-3.135,0-5.67-2.534-5.67-5.669V35.654
		l22.678,22.677H75.339z M52.661,69.669c3.13,0,5.669,2.533,5.669,5.67v17.008L35.654,69.669H52.661z M52.661,58.331H35.654
		l22.677-22.677v17.007C58.331,55.797,55.791,58.331,52.661,58.331z"/>
</g>
<g id="Capa_3_1_" display="none">
	<g display="inline">
		<g>
			<path fill="#FFFFFF" d="M64,19.021c-16.194,0-29.37,13.176-29.37,29.37c0,14.817,23.629,54.403,26.321,58.869
				c0.646,1.066,1.801,1.721,3.049,1.721s2.404-0.654,3.049-1.721c2.693-4.466,26.321-44.051,26.321-58.869
				C93.37,32.197,80.193,19.021,64,19.021z M64,98.409c-8.201-14.187-22.25-40.476-22.25-50.019c0-12.269,9.981-22.249,22.25-22.249
				s22.25,9.98,22.25,22.249C86.25,57.93,72.201,84.222,64,98.409z"/>
			<path fill="#FFFFFF" d="M64,31.479c-9.326,0-16.912,7.586-16.912,16.912c0,9.326,7.585,16.912,16.912,16.912
				c9.325,0,16.912-7.585,16.912-16.912C80.912,39.065,73.325,31.479,64,31.479z M64,58.182c-5.399,0-9.792-4.393-9.792-9.792
				s4.392-9.792,9.792-9.792c5.398,0,9.792,4.393,9.792,9.792S69.398,58.182,64,58.182z"/>
		</g>
	</g>
</g>
<g id="Capa_4" display="none">
	<path display="inline" fill="#FFFFFF" d="M93.284,110.854H34.716c-9.705,0-17.57-7.872-17.57-17.572V34.716
		c0-9.705,7.866-17.57,17.57-17.57h58.568c9.704,0,17.57,7.866,17.57,17.57v58.566C110.854,102.982,102.988,110.854,93.284,110.854z
		 M99.143,34.716c0-3.234-2.62-5.856-5.858-5.856H34.716c-3.239,0-5.856,2.623-5.856,5.856v58.566c0,3.24,2.617,5.856,5.856,5.856
		h58.568c3.238,0,5.858-2.616,5.858-5.856V34.716z M64,52.286V46.43h23.428v5.856H64z M40.574,69.854h17.569v17.573H40.574V69.854z
		 M46.43,81.57h5.856v-5.858H46.43V81.57z M40.574,40.573h17.569v17.57H40.574V40.573z M46.43,52.286h5.856V46.43H46.43V52.286z
		 M87.428,81.57H64v-5.858h23.428V81.57z"/>
</g>
<g id="Capa_5">
	<g>
		<path fill="#FFFFFF" d="M101.753,60.448c0.558-1.935,0.732-3.934,0.732-5.897c0-13.313-10.831-24.145-24.144-24.145
			c-5.254,0-10.248,1.659-14.443,4.797c-4.054,3.032-7.111,7.353-8.609,12.166c-0.05,0.16-0.221,0.526-0.91,0.412
			c-0.062-0.011-0.125-0.009-0.189-0.013c-0.228-0.015-0.474-0.027-0.728-0.027c-7.896,0-14.939,5.105-17.639,12.743
			c-0.04,0.114-0.163,0.381-0.489,0.318c-0.033-0.006-0.066-0.014-0.1-0.02c-1.196-0.24-2.423-0.361-3.646-0.361
			c-10.249,0-18.587,8.338-18.587,18.588c0,10.248,8.338,18.586,18.587,18.586h64.824c10.249,0,18.587-8.338,18.587-18.586
			c0-8.036-5.26-15.224-12.863-17.685C101.947,61.263,101.556,61.133,101.753,60.448z M96.412,94.137H31.588
			c-8.343,0-15.13-6.787-15.13-15.129c0-8.343,6.787-15.13,15.13-15.13c1.023,0,2.049,0.104,3.048,0.31
			c0.326,0.067,0.654,0.102,0.975,0.102c1.618,0,2.88-0.886,3.375-2.37c2.137-6.413,7.954-10.722,14.477-10.722
			c0.211,0,0.44,0.016,0.684,0.032c0.265,0.018,0.539,0.037,0.833,0.04h0.062c2.003,0,3.189-0.922,3.525-2.741
			c0.01-0.051,0.017-0.101,0.025-0.132c2.705-8.692,10.643-14.532,19.751-14.532c11.405,0,20.687,9.28,20.687,20.687
			c0,1.958-0.287,3.938-0.853,5.886c-0.275,0.949-0.213,1.793,0.186,2.508c0.593,1.064,1.658,1.361,2.17,1.504l0.081,0.023
			c6.436,1.855,10.93,7.832,10.93,14.535C111.542,87.35,104.754,94.137,96.412,94.137z"/>
		<path fill="#FFFFFF" d="M56.648,64.906c-0.992-0.32-2.143-0.496-3.239-0.496c-5.205,0-8.84,3.595-8.84,8.742
			c0,5.037,3.307,8.422,8.228,8.422c1.961,0,3.385-0.425,4.06-0.679c0.23-0.086,0.843-0.316,0.756-1.267l-0.235-1.056
			c-0.105-0.486-0.428-0.777-0.862-0.777c-0.189,0-0.361,0.058-0.473,0.101c-0.56,0.215-1.451,0.499-2.729,0.499
			c-2.963,0-4.953-2.158-4.953-5.372c0-3.302,1.982-5.436,5.05-5.436c0.969,0,1.821,0.144,2.533,0.429l0.037,0.015
			c0.112,0.047,0.282,0.117,0.482,0.117c0.235,0,0.661-0.101,0.86-0.776l0.318-1.082l0.012-0.051
			C57.753,65.658,57.358,65.136,56.648,64.906z"/>
		<path fill="#FFFFFF" d="M67.925,64.346c-4.825,0-8.195,3.596-8.195,8.743c0,4.996,3.265,8.485,7.938,8.485
			c3.962,0,8.227-2.736,8.227-8.743C75.894,67.835,72.617,64.346,67.925,64.346z M67.796,78.524c-2.478,0-4.276-2.326-4.276-5.532
			c0-2.786,1.343-5.598,4.34-5.598c3.332,0,4.213,3.618,4.213,5.533C72.072,76.171,70.273,78.524,67.796,78.524z"/>
		<path fill="#FFFFFF" d="M88.3,78.8h-3.412c-0.604,0-0.306-0.295-0.156-0.439c2.672-2.611,4.65-4.903,4.65-7.729
			c0-2.433-1.58-4.889-5.11-4.889c-1.382,0-2.714,0.391-3.851,1.126c-0.709,0.458-0.976,1.13-0.685,1.717l0.285,0.632l0.021,0.042
			c0.169,0.317,0.481,0.507,0.835,0.507c0.369,0,0.676-0.199,0.883-0.334c0.698-0.455,1.409-0.686,2.112-0.686
			c1.462,0,2.173,0.697,2.173,2.123c-0.019,1.862-1.532,3.604-5.146,7.043c-0.17,0.147-1.167,1.01-1.611,1.573
			c-0.229,0.291-0.225,0.663-0.219,0.99l0.001,0.131c0,0.786,0.673,1.197,1.337,1.197h7.88c0.051,0.006,0.123,0.012,0.209,0.012
			c0.858,0,1.242-0.549,1.242-1.093v-0.691C89.737,79.231,89.019,78.806,88.3,78.8z"/>
	</g>
</g>
</svg>
