<?xml version="1.0" encoding="utf-8"?>
<!-- Generator: Adobe Illustrator 16.0.0, SVG Export Plug-In . SVG Version: 6.00 Build 0)  -->
<!DOCTYPE svg PUBLIC "-//W3C//DTD SVG 1.1//EN" "http://www.w3.org/Graphics/SVG/1.1/DTD/svg11.dtd">
<svg version="1.1" xmlns="http://www.w3.org/2000/svg" xmlns:xlink="http://www.w3.org/1999/xlink" x="0px" y="0px" width="169.5px"
	 height="128px" viewBox="0 0 169.5 128" enable-background="new 0 0 169.5 128" xml:space="preserve">
<g id="Capa_2_1_" display="none">
	<rect display="inline" fill="#47B39C" width="128" height="128"/>
</g>
<g id="Capa_8" display="none">
	
		<image display="inline" overflow="visible" width="108" height="108" xlink:href="4F514612.jpg"  transform="matrix(0.9999 0 0 0.9999 10.0068 10.0068)">
	</image>
</g>
<g id="Capa_9">
	<polygon opacity="0.1" points="169.896,129 101.05,129 55.062,82.938 89.125,48.875 	"/>
	<polyline fill="none" stroke="#FFFFFF" stroke-width="8" stroke-miterlimit="10" points="37.5,60 57.75,80.25 89.125,48.875 	"/>
</g>
<g id="Capa_7" display="none">
	
		<image display="inline" overflow="visible" width="110" height="109" xlink:href="4F514616.jpg"  transform="matrix(1.1636 0 0 1.1636 0 0.582)">
	</image>
</g>
<g id="Capa_5" display="none">
	<rect x="-274.5" y="96" display="inline" opacity="0.15" width="95.367" height="64"/>
</g>
<g id="Capa_3_1_" display="none">
	
		<image display="inline" overflow="visible" width="64" height="64" xlink:href="C:\Users\Toni\Desktop\64x64\clock.png"  transform="matrix(1.5625 0 0 1.5625 14 14)">
	</image>
</g>
<g id="Capa_4" display="none">
	<g display="inline">
		<path fill="#FFFFFF" d="M64,22c23.159,0,42,18.841,42,42c0,23.159-18.841,42-42,42c-23.159,0-42-18.841-42-42
			C22,40.841,40.841,22,64,22 M64,14c-27.614,0-50,22.386-50,50s22.386,50,50,50s50-22.386,50-50S91.614,14,64,14L64,14z"/>
	</g>
	
		<polyline display="inline" fill="none" stroke="#FFFFFF" stroke-width="8" stroke-linecap="round" stroke-linejoin="round" stroke-miterlimit="10" points="
		93.5,64 64,64 64,42.5 	"/>
</g>
<g id="Capa_4_copia" display="none">
	<polygon display="inline" opacity="0.1" points="169.5,128.041 86.424,128 43.234,84.811 84.752,43.292 	"/>
	<g display="inline">
		<g>
			<path fill="#FFFFFF" d="M64,39.394c13.567,0,24.606,11.039,24.606,24.607c0,13.568-11.039,24.606-24.606,24.606
				c-13.568,0-24.606-11.038-24.606-24.606C39.394,50.432,50.432,39.394,64,39.394 M64,34.707
				c-16.178,0-29.293,13.116-29.293,29.294c0,16.177,13.116,29.292,29.293,29.292S93.293,80.178,93.293,64
				C93.293,47.822,80.178,34.707,64,34.707L64,34.707z"/>
		</g>
		
			<polyline fill="none" stroke="#FFFFFF" stroke-width="4.687" stroke-linecap="round" stroke-linejoin="round" stroke-miterlimit="10" points="
			81.283,64 64,64 64,51.403 		"/>
	</g>
</g>
<g id="Capa_1" display="none">
	<g id="Capa_1_1_">
		<g display="inline">
			<rect fill="#47B39C" width="128" height="128"/>
			<polygon opacity="0.2" fill="#47B39C" enable-background="new    " points="128,128 0.051,128 128,-0.187 128,-0.107 			"/>
			<g>
				<polyline opacity="0.2" enable-background="new    " points="106.637,60.426 128,87.131 128,97.221 51.024,97.395 
					21.178,67.695 				"/>
				<g>
					<rect x="21" y="60" fill="#FFFFFF" width="86" height="8"/>
					<g>
						<polygon fill="#FFFFFF" points="54.503,37.181 21.967,69.419 16.932,64.383 49.467,32.145 						"/>
						<polygon fill="#FFFFFF" points="48.28,96.718 21.68,69.523 26.715,64.488 53.316,91.682 						"/>
					</g>
				</g>
			</g>
			<g display="none">
				<polyline display="inline" opacity="0.2" enable-background="new    " points="106.637,91.285 128,117.991 128,128.08 
					51.024,128.254 21.178,98.557 				"/>
				<polyline display="inline" opacity="0.2" enable-background="new    " points="106.637,60.426 128,87.131 128,97.221 
					51.024,97.395 21.178,67.695 				"/>
				<polyline display="inline" opacity="0.2" enable-background="new    " points="106.637,30.752 128,57.458 128,67.547 
					51.024,67.721 21.178,38.022 				"/>
				<rect x="21" y="31" display="inline" fill="#FFFFFF" width="86" height="7"/>
				<rect x="21" y="60" display="inline" fill="#FFFFFF" width="86" height="8"/>
				<rect x="21" y="91" display="inline" fill="#FFFFFF" width="86" height="7"/>
			</g>
		</g>
	</g>
	<g id="Capa_2">
		<path display="inline" fill="#F2F2F2" d="M115,24H13C0.869,24-9,33.869-9,46v35c0,12.131,9.869,22,22,22h102
			c12.131,0,22-9.869,22-22V46C137,33.869,127.131,24,115,24z M127,81c0,6.627-5.373,12-12,12H25V35H8.211
			c1.468-0.64,3.085-1,4.789-1h102c6.627,0,12,5.373,12,12V81z"/>
		<line display="inline" fill="none" stroke="#000000" stroke-width="8" stroke-miterlimit="10" x1="78" y1="65" x2="120" y2="65"/>
	</g>
	<g id="Capa_3" display="inline">
		<g>
			<path fill="none" stroke="#FFFFFF" stroke-width="8" stroke-miterlimit="10" d="M109,75c0,9.941-8.059,18-18,18H36
				c-9.941,0-18-8.059-18-18V54c0-9.941,8.059-18,18-18h55c9.941,0,18,8.059,18,18V75z"/>
			<path fill="none" stroke="#FFFFFF" stroke-width="8" stroke-miterlimit="10" d="M109,75c0,9.941-8.059,18-18,18H36
				c-9.941,0-18-8.059-18-18V54c0-9.941,8.059-18,18-18h55c9.941,0,18,8.059,18,18V75z"/>
			<path fill="#FFFFFF" stroke="#FFFFFF" stroke-width="8" stroke-miterlimit="10" d="M36.5,81c-3.309,0-6.5-3.191-6.5-6.5v-21
				c0-3.309,3.191-5.5,6.5-5.5H42v5.5v21V81H36.5z"/>
		</g>
	</g>
</g>
</svg>
