<?xml version="1.0" encoding="UTF-8"?>
<svg width="301px" height="82px" viewBox="0 0 301 82" version="1.1" xmlns="http://www.w3.org/2000/svg" xmlns:xlink="http://www.w3.org/1999/xlink">
    <!-- Generator: Sketch 53 (72520) - https://sketchapp.com -->
    <title>BLINKAY_RGB_blanco (1)</title>
    <desc>Created with Sketch.</desc>
    <g id="Page-1" stroke="none" stroke-width="1" fill="none" fill-rule="evenodd">
        <g id="BLINKAY_RGB_blanco-(1)" fill-rule="nonzero">
            <path d="M0.9,1.2 L31,1.2 C42.2,1.2 52.9,6.4 52.9,20.8 C52.9,29.1 46.7,33.2 45.7,33.5 C46.7,33.7 56.4,37.2 56.4,49.6 C56.4,61.7 46.4,69.9 33.4,69.9 L0.8,69.9 L0.8,1.2 L0.9,1.2 Z M30.6,29.3 C37.2,29.3 40.9,26.8 40.9,20.9 C40.9,14.9 36.4,12.5 30.6,12.5 L12.6,12.5 L12.6,29.4 L30.6,29.3 L30.6,29.3 Z M44.5,49.7 C44.5,43.2 39.6,40.6 33.1,40.6 L12.7,40.6 L12.7,58.9 L33.1,58.9 C39.6,58.8 44.5,56.1 44.5,49.7 Z" id="Shape" fill="#FFFFFF"></path>
            <polygon id="Path" fill="#FFFFFF" points="62.7 1.2 74.5 1.2 74.5 70 62.7 70"></polygon>
            <rect id="Rectangle" fill="#FFFFFF" x="85.6" y="23.4" width="11.8" height="46.5"></rect>
            <path d="M149.1,39.8 L149.1,70 L137.3,70 L137.3,42.8 C137.3,36.1 133.2,33.3 128.1,33.3 C122,33.3 118.9,39.3 118.9,39.3 L118.9,70 L107.1,70 L107.1,23.5 L118.1,23.5 L118.1,30.3 C118.1,30.3 122.2,22.3 132,22.3 C141.1,22.3 149.1,28.6 149.1,39.8 Z" id="Path" fill="#FFFFFF"></path>
            <polygon id="Path" fill="#FFFFFF" points="170.1 41.8 186.8 23.4 202 23.4 181.6 45.4 203.4 69.9 187.9 69.9 170.1 49.6 170.1 70 158.3 70 158.3 1.3 170.1 1.3"></polygon>
            <path d="M245.4,40.8 L245.4,70 L234.5,70 L234.5,64.1 C234.5,64.1 229.7,71.2 219.2,71.2 C210.5,71.2 202.4,65.5 202.4,55.6 C202.4,46.7 210.5,40.2 220.7,40.2 C229.2,40.2 233.7,43.5 233.7,43.5 L233.7,42 C233.7,35.9 227.8,33.9 223.7,33.9 C216.9,33.9 209,33.9 209,33.9 L209,23.4 C209,23.4 214.6,23.4 224.3,23.4 C237.6,23.4 245.4,30.2 245.4,40.8 Z M233.7,55.9 L233.7,51.1 C233.7,51.1 229.5,48.7 223.1,48.7 C219.5,48.7 214.5,50.3 214.5,55.3 C214.5,60.2 219.3,61.3 222.9,61.3 C229.9,61.3 233.7,55.9 233.7,55.9 Z" id="Shape" fill="#FFFFFF"></path>
            <g id="Group" transform="translate(83.000000, 0.000000)">
                <path d="M57,16.1 L8.4,16.1 C4.2,16.1 0.8,12.7 0.8,8.5 C0.8,4.3 4.2,0.9 8.4,0.9 L57,0.9 C61.2,0.9 64.6,4.3 64.6,8.5 C64.6,12.7 61.2,16.1 57,16.1 Z" id="Path" fill="#05D194"></path>
                <path d="M56.9,0.7 C61.2,0.7 64.7,4.1 64.7,8.5 C64.7,12.8 61.3,16.3 56.9,16.3 C52.5,16.3 49.1,12.9 49.1,8.5 C49.1,4.1 52.6,0.7 56.9,0.7 Z" id="Path" fill="#FFFFFF"></path>
            </g>
            <polygon id="Path" fill="#FFFFFF" points="287.1 23.4 273.4 49.8 259.8 23.4 246.5 23.4 266.9 62.5 256.9 81.8 269.9 81.8 300.4 23.4"></polygon>
        </g>
    </g>
</svg>