<svg xmlns="http://www.w3.org/2000/svg" width="208" height="56" viewBox="0 0 208 56"><g transform="translate(-857 -349)"><path d="M22.883,48H0V0H21.161A17.428,17.428,0,0,1,31.785,3.077C34.927,5.461,36.52,9.04,36.52,13.714a9.845,9.845,0,0,1-5.028,8.845A10.151,10.151,0,0,1,35.5,24.994a10.906,10.906,0,0,1,2.419,3.429A13.066,13.066,0,0,1,39,33.806a13.619,13.619,0,0,1-1.24,5.776,13.272,13.272,0,0,1-3.409,4.484A17.473,17.473,0,0,1,22.883,48ZM8.266,27.428V40.183H22.607a9.78,9.78,0,0,0,5.7-1.491,5.656,5.656,0,0,0,2.29-4.886,5.656,5.656,0,0,0-2.29-4.886,9.78,9.78,0,0,0-5.7-1.491Zm0-19.611V19.612h12.62c4.867,0,7.232-1.929,7.232-5.9A5.263,5.263,0,0,0,26.025,9.2a8.7,8.7,0,0,0-5.14-1.38Z" transform="translate(857 350)" fill="#034fc6"/><path d="M0,48H8V0H0Z" transform="translate(900 350)" fill="#034fc6"/><path d="M0,32H8V0H0Z" transform="translate(916 365)" fill="#034fc6"/><path d="M29,12.154V33H20.87V14.192C20.87,9.574,18.024,7.6,14.5,7.6c-4.2,0-6.369,4.142-6.369,4.142V33H0V.814H7.588V5.5A11.1,11.1,0,0,1,17.21,0C23.444,0,29,4.413,29,12.154" transform="translate(931 365)" fill="#034fc6"/><path d="M8.1,28.32,19.586,15.5H30.054L16.006,30.857,31,48H20.328L8.1,33.806V48H0V0H8.1Z" transform="translate(966 350)" fill="#034fc6"/><path d="M11.713,33A12.525,12.525,0,0,1,3.57,30.174,10.125,10.125,0,0,1,0,22.2a9.8,9.8,0,0,1,3.724-7.648,14.169,14.169,0,0,1,9.015-3.013A19.034,19.034,0,0,1,19.495,12.7a10.293,10.293,0,0,1,2.286,1.154V12.833c0-4.4-4.391-5.568-6.986-5.568H4.509V0h10.7c4.536,0,8.3,1.127,10.89,3.259A10.929,10.929,0,0,1,30,12.018V32.184H22.4v-4.07l0,.006a11.3,11.3,0,0,1-2.59,2.436A14,14,0,0,1,11.713,33Zm2.671-15.482a8.009,8.009,0,0,0-3.964.976,3.93,3.93,0,0,0-2.063,3.574,3.538,3.538,0,0,0,1.995,3.343,8.673,8.673,0,0,0,3.9.8,9.717,9.717,0,0,0,7.534-3.735V19.148A16.548,16.548,0,0,0,14.384,17.519Z" transform="translate(997 365)" fill="#034fc6"/><path d="M27.868,0,18.5,18.073,9.132,0H0L13.992,26.77,7.144,40h8.938L37,0Z" transform="translate(1028 365)" fill="#034fc6"/><path d="M38.735,11H5.265A5.386,5.386,0,0,1,0,5.5,5.386,5.386,0,0,1,5.265,0H38.735A5.386,5.386,0,0,1,44,5.5,5.386,5.386,0,0,1,38.735,11" transform="translate(915 349)" fill="#04d293"/><path d="M5.5,0A5.467,5.467,0,0,1,11,5.5,5.467,5.467,0,0,1,5.5,11,5.467,5.467,0,0,1,0,5.5,5.467,5.467,0,0,1,5.5,0" transform="translate(948 349)" fill="#034fc6"/></g></svg>