<svg xmlns="http://www.w3.org/2000/svg" viewBox="0 0 600 600"><linearGradient id="a" gradientUnits="userSpaceOnUse" x1="-201.746" y1="410.285" x2="-201.917" y2="409.405" gradientTransform="matrix(-554.9516 374.3196 -374.3208 -554.9534 41706.746 303294.594)"><stop offset="0" stop-color="#04d293"/><stop offset="1" stop-color="#034fc6"/></linearGradient><path d="M132.3 51.3c16.8-11.4 34.8-21 53.5-28.8C222 7.6 260.8 0 299.9 0 358.1 0 415 16.9 463.8 48.6c16.5 10.8 31.9 23.1 46 36.9 29 28.5 52 62.6 67.6 100.2 14.9 36.2 22.6 75 22.6 114.2 0 58.2-16.9 115.1-48.6 163.9-10.8 16.5-23.1 31.9-36.9 46-28.5 29-62.6 52-100.2 67.6-36.2 14.9-75 22.6-114.2 22.6-58.2 0-115.1-16.9-163.9-48.6-16.5-10.8-31.9-23.1-46-36.9-29-28.5-52-62.6-67.6-100.2C7.6 378 0 339.2 0 300c0-58.2 16.9-115.1 48.6-163.9 10.8-16.5 23.1-31.9 36.9-46 14.3-14.4 29.9-27.4 46.8-38.8zM442 510.6c116.1-78.3 146.9-236.5 68.5-352.6S274.1 11.1 158 89.4 11.1 325.9 89.4 442 325.9 588.9 442 510.6z" fill="url(#a)"/></svg>