<svg xmlns="http://www.w3.org/2000/svg" width="133.714" height="36" viewBox="0 0 133.714 36"><g transform="translate(-96 -21.036)"><path d="M14.711,30.857H0V0H13.6a11.2,11.2,0,0,1,6.83,1.978,8.08,8.08,0,0,1,3.044,6.838A6.329,6.329,0,0,1,20.245,14.5a6.526,6.526,0,0,1,2.579,1.565,7.011,7.011,0,0,1,1.555,2.2,8.4,8.4,0,0,1,.692,3.46,8.755,8.755,0,0,1-.8,3.713,8.532,8.532,0,0,1-2.192,2.882A11.233,11.233,0,0,1,14.711,30.857Zm-9.4-13.224v8.2h9.22a6.287,6.287,0,0,0,3.665-.959,3.636,3.636,0,0,0,1.472-3.141A3.636,3.636,0,0,0,18.2,18.591a6.287,6.287,0,0,0-3.665-.959Zm0-12.607v7.582h8.113c3.129,0,4.649-1.24,4.649-3.791a3.384,3.384,0,0,0-1.345-2.9,5.59,5.59,0,0,0-3.3-.887Z" transform="translate(96 21.679)" fill="#fff"/><path d="M0,30.857H5.143V0H0Z" transform="translate(123.643 21.679)" fill="#fff"/><path d="M0,20.571H5.143V0H0Z" transform="translate(133.929 31.321)" fill="#fff"/><path d="M18.643,7.813v13.4H13.416V9.123c0-2.969-1.83-4.234-4.095-4.234-2.7,0-4.095,2.663-4.095,2.663V21.214H0V.524H4.878V3.536A7.135,7.135,0,0,1,11.064,0a7.405,7.405,0,0,1,7.579,7.813" transform="translate(143.571 31.321)" fill="#fff"/><path d="M5.21,18.206l7.381-8.243h6.73L10.29,19.837l9.639,11.02h-6.86L5.21,21.732v9.125H0V0H5.21Z" transform="translate(166.071 21.679)" fill="#fff"/><path d="M7.53,21.214A8.052,8.052,0,0,1,2.3,19.4,6.509,6.509,0,0,1,0,14.274,6.3,6.3,0,0,1,2.394,9.358a9.109,9.109,0,0,1,5.8-1.937,12.236,12.236,0,0,1,4.343.742A6.617,6.617,0,0,1,14,8.9V8.25c0-2.826-2.823-3.58-4.491-3.58H2.9V0H9.775a10.889,10.889,0,0,1,7,2.1,7.026,7.026,0,0,1,2.51,5.63V20.69H14.4V18.073l0,0a7.264,7.264,0,0,1-1.665,1.566A9,9,0,0,1,7.53,21.214Zm1.717-9.953a5.149,5.149,0,0,0-2.548.628,2.526,2.526,0,0,0-1.326,2.3,2.274,2.274,0,0,0,1.282,2.149,5.576,5.576,0,0,0,2.5.513A6.246,6.246,0,0,0,14,14.448V12.31A10.638,10.638,0,0,0,9.247,11.262Z" transform="translate(186 31.321)" fill="#fff"/><path d="M17.915,0,11.893,11.619,5.871,0H0L8.995,17.21l-4.4,8.5h5.746L23.786,0Z" transform="translate(205.929 31.321)" fill="#fff"/><path d="M24.9,7.071H3.385A3.463,3.463,0,0,1,0,3.536,3.463,3.463,0,0,1,3.385,0H24.9a3.463,3.463,0,0,1,3.385,3.536A3.463,3.463,0,0,1,24.9,7.071" transform="translate(133.286 21.036)" fill="#04d293"/><path d="M3.536,0A3.515,3.515,0,0,1,7.071,3.536,3.515,3.515,0,0,1,3.536,7.071,3.515,3.515,0,0,1,0,3.536,3.515,3.515,0,0,1,3.536,0" transform="translate(154.5 21.036)" fill="#fff"/></g></svg>