<?xml version="1.0" encoding="utf-8"?>
<!-- Generator: Adobe Illustrator 24.1.2, SVG Export Plug-In . SVG Version: 6.00 Build 0)  -->
<svg version="1.1" xmlns="http://www.w3.org/2000/svg" xmlns:xlink="http://www.w3.org/1999/xlink" x="0px" y="0px"
	 viewBox="0 0 291.8 291.8" style="enable-background:new 0 0 291.8 291.8;" xml:space="preserve">
<style type="text/css">
	.st0{display:none;}
	.st1{display:inline;fill:#006FCF;}
	.st2{fill:#006FCF;}
	.st3{fill:#F2F2F2;}
</style>
<g id="Layer_1" class="st0">
	<path class="st1" d="M47,114l-28.8,63.8h34.5l4.3-10.2h9.8l4.3,10.2h38V170l3.4,7.8H132l3.4-7.9v7.9h79l9.6-9.9l9,9.9l40.6,0.1
		L244.6,146l28.9-32.1h-39.9l-9.3,9.7l-8.7-9.7h-85.9l-7.4,16.5l-7.5-16.5H80.3v7.5l-3.8-7.5C76.5,114,47,114,47,114z M53.7,123
		h16.8l19.1,43.2V123h18.4l14.8,31l13.6-31h18.3v45.8h-11.2l-0.1-35.9l-16.3,35.9h-10l-16.3-35.9v35.9H78l-4.3-10.3H50.1l-4.3,10.2
		H33.5C33.5,168.8,53.7,123,53.7,123z M165,123h45.3l13.9,15l14.3-15h13.9l-21.1,23l21.1,22.7h-14.5L224,153.6l-14.4,15.2H165
		L165,123L165,123z M61.9,130.8L54.2,149h15.5L61.9,130.8z M176.2,132.5v8.4h24.7v9.3h-24.7v9.1h27.7l12.9-13.4l-12.3-13.4
		L176.2,132.5L176.2,132.5z"/>
</g>
<g id="Layer_1_copia">
	<g>
		<rect x="32.7" y="32.7" class="st2" width="226.3" height="226.3"/>
		<g>
			<g>
				<polygon class="st3" points="259,57.7 224.3,57.7 214.1,80.5 203.7,57.7 156.2,57.7 156.2,68.1 150.9,57.7 110.2,57.7 
					70.4,145.8 118.1,145.8 124,131.8 137.5,131.8 143.4,145.8 195.8,145.8 195.8,135.1 200.5,145.8 227.6,145.8 232.3,134.9 
					232.3,145.8 259,145.8 				"/>
				<path class="st2" d="M119.4,70.2h23.2l26.4,59.7V70.2h25.4l20.4,42.8l18.8-42.8H259v63.2h-15.4l-0.1-49.5L221,133.5h-13.8
					l-22.6-49.5v49.5H153l-6-14.2h-32.5l-6,14.2h-17C91.5,133.4,119.4,70.2,119.4,70.2z M130.7,80.9L120,106.2h21.4L130.7,80.9z"/>
			</g>
			<g>
				<polygon class="st3" points="103.2,233.9 185.6,233.9 198.9,220.2 211.3,233.9 259,234 259.1,230.2 259.1,225 227.4,190.1 
					259.1,154.9 259.1,149.5 259,145.8 212.1,145.8 199.2,159.3 187.2,145.8 103.2,145.8 				"/>
				<path class="st2" d="M117.3,158.3h62.6l19.2,20.7l19.8-20.7H238l-29.1,31.8l29.1,31.4h-20l-19.2-20.9L179,221.5h-61.7
					L117.3,158.3L117.3,158.3z M132.8,171.4V183h34.2v12.9h-34.2v12.6h38.3l17.8-18.6l-17.1-18.5L132.8,171.4L132.8,171.4z"/>
			</g>
		</g>
	</g>
</g>
</svg>
