<?xml version="1.0" encoding="utf-8"?>
<!-- Generator: Adobe Illustrator 23.0.1, SVG Export Plug-In . SVG Version: 6.00 Build 0)  -->
<svg version="1.1" id="MC" xmlns="http://www.w3.org/2000/svg" xmlns:xlink="http://www.w3.org/1999/xlink" x="0px" y="0px"
	 viewBox="0 0 320 320" style="enable-background:new 0 0 320 320;" xml:space="preserve">
<style type="text/css">
	.st0{fill:#FF5F00;}
	.st1{fill:#EB001B;}
	.st2{fill:#F79E1B;}
</style>
<g>
	<path class="st0" d="M119.4,231.5h81.1V85.8h-81.1V231.5z"/>
	<path class="st1" d="M124.6,159.7c0-28.4,13-55.3,35.4-72.8c-40.2-31.6-98.5-24.6-130.1,15.6S5.2,200.9,45.5,232.5
		c33.6,26.4,80.9,26.4,114.5,0C137.6,215,124.6,188.1,124.6,159.7"/>
	<path class="st2" d="M217.3,252.3c-20.8,0-41-6.9-57.3-19.8c22.4-17.5,35.5-44.4,35.4-72.8c0.1-28.4-13-55.3-35.4-72.8
		c40.3-31.6,98.6-24.6,130.3,15.7c5.1,6.5,9.3,13.5,12.4,21.1c19.9,47.1-2.1,101.5-49.3,121.4C242,249.8,229.7,252.3,217.3,252.3z
		 M303.7,217.1L303.7,217.1h-0.7v-3.6h0.9l1.1,2.5l1.1-2.5h0.9v3.6h-0.7v-2.7l-1,2.3h-0.7l-1-2.3L303.7,217.1L303.7,217.1z
		 M301.2,217.1h-0.7v-3h-1.2v-0.6h3.1v0.6h-1.2L301.2,217.1L301.2,217.1z"/>
</g>
</svg>
