<?xml version="1.0" encoding="utf-8"?>
<!-- Generator: Adobe Illustrator 23.0.1, SVG Export Plug-In . SVG Version: 6.00 Build 0)  -->
<svg version="1.1" id="Capa_1" xmlns="http://www.w3.org/2000/svg" xmlns:xlink="http://www.w3.org/1999/xlink" x="0px" y="0px"
	 viewBox="0 0 320 320" style="enable-background:new 0 0 320 320;" xml:space="preserve">
<style type="text/css">
	.st0{fill:#009CDE;}
	.st1{fill:#012169;}
	.st2{fill:#003087;}
</style>
<g>
	<g id="a">
		<path class="st0" d="M225.3,112.6c2.3-15,0-25.2-8.1-34.4c-8.9-10.2-25-14.5-45.6-14.5h-59.8c-4.2,0-7.8,3.1-8.5,7.2l-24.9,158
			c-0.4,2.8,1.5,5.4,4.3,5.9c0.3,0,0.5,0.1,0.8,0.1h36.9l-2.6,16.2c-0.4,2.5,1.3,4.8,3.7,5.1c0.2,0,0.5,0.1,0.7,0.1h31.2
			c3.7,0,6.8-2.7,7.4-6.3l0.3-1.6l5.9-37.2l0.4-2.1c0.6-3.6,3.7-6.3,7.4-6.3h4.7c30.2,0,53.8-12.3,60.7-47.7
			c2.9-14.8,1.4-27.2-6.2-35.9C231.4,116.5,228.5,114.3,225.3,112.6"/>
		<path class="st1" d="M225.3,112.6c2.3-15,0-25.2-8.1-34.4c-8.9-10.2-25-14.5-45.6-14.5h-59.8c-4.2,0-7.8,3.1-8.5,7.2l-24.9,158
			c-0.4,2.8,1.5,5.4,4.3,5.9c0.3,0,0.5,0.1,0.8,0.1h36.9l9.3-58.8l-0.3,1.8c0.6-4.2,4.2-7.2,8.4-7.2h17.6c34.5,0,61.5-14,69.4-54.5
			C224.9,114.9,225.1,113.7,225.3,112.6"/>
		<path class="st2" d="M139.6,112.8c0.6-3.6,3.7-6.3,7.4-6.3h46.9c5.2,0,10.4,0.3,15.5,1.1c1.4,0.2,2.7,0.5,3.9,0.8s2.5,0.6,3.7,1
			c0.6,0.2,1.2,0.4,1.8,0.6c2.2,0.7,4.4,1.6,6.5,2.7c2.3-15,0-25.2-8.1-34.4c-8.9-10.2-25-14.5-45.6-14.5h-59.8
			c-4.2,0-7.8,3.1-8.5,7.2L78.4,229c-0.4,2.8,1.5,5.4,4.3,5.9c0.3,0,0.5,0.1,0.8,0.1h36.9L139.6,112.8"/>
	</g>
</g>
</svg>
