<?xml version="1.0" encoding="utf-8"?>
<!-- Generator: Adobe Illustrator 23.0.1, SVG Export Plug-In . SVG Version: 6.00 Build 0)  -->
<svg version="1.1" id="Capa_1" xmlns="http://www.w3.org/2000/svg" xmlns:xlink="http://www.w3.org/1999/xlink" x="0px" y="0px"
	 viewBox="0 0 320 320" style="enable-background:new 0 0 320 320;" xml:space="preserve">
<style type="text/css">
	.st0{fill:#16216A;}
</style>
<path class="st0" d="M308.5,204.8h-21.8c0-0.1-2.1-10.2-2.9-13.4c-1.8,0-9.2,0-16.3,0h-0.2c-6.3,0-12.3,0-13.5,0
	c-0.9,2.4-4.9,13.3-4.9,13.4h-24.7l34.9-81.7c0.9-2.5,2.7-4.6,5-5.9c2.3-1.1,4.8-1.6,7.3-1.5h18.1L308.5,204.8L308.5,204.8
	L308.5,204.8z M269.9,148.3c-0.1,0.2-7.4,19.8-9.3,24.9H280c-0.8-3.9-4.3-20.5-5.4-25.6l0-0.2l-1.6-7.7c-0.7,1.9-1.6,4.4-2.3,6.2v0
	C270.2,147.3,269.9,148.2,269.9,148.3L269.9,148.3z M168.1,203.4c-3.9-0.6-7.7-1.7-11.4-3.2l3.4-19.3l3.1,1.4
	c7.6,3.1,12.7,4.5,22.5,4.5c6.8,0,14.2-2.6,14.3-8.4c0-3.8-3.1-6.5-12.4-10.7c-9-4.1-21.1-11-20.9-23.5
	c0.1-16.8,16.7-28.5,40.4-28.5c7.3-0.1,14.5,1.2,21.4,3.6l-3.2,18.7l-2.2-1c-5.4-2.2-11.2-3.3-17.1-3.3c-0.3,0-0.5,0-0.8,0
	c-4.3,0-7.9,0.8-10.3,2.4c-2.1,1.3-3.3,3.2-3.3,5.1c-0.1,4.1,5.1,6.7,13.4,10.7c13.8,6.2,20.1,13.6,20,23.5
	c0,8.6-4.3,16.7-11.4,21.5c-7.4,5.3-17.8,8-30.1,8C178.2,204.8,173.1,204.3,168.1,203.4z M118.8,204.8l14.6-89.1h23.4l-14.6,89.1
	H118.8z M38.7,126.9c-8.4-4.6-17.4-8-26.7-10.1l0.3-1.8h39.2c5.3,0.2,9.5,1.8,11,7.2l8.5,39.5c-0.5-1.2-1-2.4-1.6-3.6
	c0.9,2,1.7,4,2.4,6.1l2.5,12.4l23.4-60.9H123l-37.6,89.1l-25.3,0L38.7,126.9z"/>
</svg>
