<svg version="1.1" id="Capa_1" xmlns="http://www.w3.org/2000/svg" x="0" y="0" viewBox="0 0 64 64" xml:space="preserve"><style>.title-icon{fill:#034fc7}</style><path class="title-icon" d="M61.4 11.4C60 10 58.1 9.1 56 8.9h-.8c-1.8 0-3.5.7-4.6 1.9l-4.4 4.5-17.1 17.1c-.4.4-.6.9-.6 1.4v8.4c0 1.1.9 2 2 2h8.6c.5 0 1-.2 1.4-.6l18.4-18.2 2.9-3c1.4-1.2 2.2-3 2.2-4.9v-.8c-.2-2.1-1.2-3.9-2.6-5.3zM38.3 40.3h-5.8v-5.6l16.6-16.6 5.7 5.9-16.5 16.3zm20.9-21L57.6 21 52 15.2l1.6-1.6c.5-.5 1.2-.7 1.9-.7h.3c1.1.1 2.1.6 2.8 1.4.8.7 1.3 1.7 1.4 2.8v.3c.1.7-.3 1.4-.8 1.9zM21.2 39.7h-8c-1.1 0-2 .9-2 2s.9 2 2 2h8c1.1 0 2-.9 2-2s-.9-2-2-2zM21.2 27.4h-8c-1.1 0-2 .9-2 2s.9 2 2 2h8c1.1 0 2-.9 2-2s-.9-2-2-2zM35 17c0-1.1-.9-2-2-2H13c-1.1 0-2 .9-2 2s.9 2 2 2h20c1.1 0 2-.9 2-2z"/><path class="title-icon" d="M50.8 40.3c-1.1 0-2 .9-2 2v17.4c-1.1-.5-2-1.1-2.8-1.8-1.9-2-4.5-3.2-7.4-3.2s-5.6 1.2-7.4 3.2C30 59.2 28.3 60 26.4 60s-3.6-.9-4.8-2.2c-1.9-2-4.5-3.2-7.4-3.2s-5.6 1.2-7.4 3.2c-.8.8-1.7 1.4-2.7 1.8H4V4h46.8c1.1 0 2-.9 2-2s-.9-2-2-2H2C.9 0 0 .9 0 2v60c0 1.1.9 2 2 2 2.9 0 5.6-1.3 7.4-3.2 1.2-1.4 2.9-2.2 4.8-2.2s3.6.9 4.8 2.2c1.9 2 4.5 3.2 7.4 3.2s5.6-1.2 7.4-3.2c1.2-1.4 2.9-2.2 4.8-2.2s3.6.9 4.8 2.2c1.9 2 4.5 3.2 7.4 3.2 1.1 0 2-.9 2-2V42.3c-.1-1.1-.9-2-2-2z"/></svg>